<?xml version="1.0" encoding="utf-8"?>
<!-- Generator: Adobe Illustrator 24.1.3, SVG Export Plug-In . SVG Version: 6.00 Build 0)  -->
<svg version="1.1" id="Layer_1" xmlns="http://www.w3.org/2000/svg" xmlns:xlink="http://www.w3.org/1999/xlink" x="0px" y="0px"
	 viewBox="0 0 1024 1024" style="enable-background:new 0 0 1024 1024;" xml:space="preserve">
<path d="M493.53,711.71C480.12,700.22,369.22,599.5,369.22,599.5l35.88-32.18l83.43,75.3c0,0,0.05-231.91,0.05-236.77
	c0.01-35.34,47.94-35.33,47.94,0.01c0,5.1-0.05,236.61-0.05,236.61l83.42-75.16l35.89,32.19c0,0-111.46,99.94-124.55,112.21
	C518.14,723.98,506.94,723.2,493.53,711.71z"/>
<path d="M837.04,497.89c-5.08,0-9.92-2.14-14.8-6.53L590.46,282.79l-0.22,0.2c-7.56,6.84-31.12,26.75-48.18,43.69
	c-21.07,20.92-35.8,21.87-59.05,0.01l-48.41-43.89L202.83,491.36c-4.89,4.4-9.73,6.53-14.8,6.53c-5.08,0-9.8-2.26-13.65-6.53
	l-8.08-8.98c-6.73-7.48-6.07-17.18,1.65-24.12c2.08-1.87,247.68-222.89,247.68-222.89c14.78-12.77,25.15-12.77,38.1,0.06
	c2.06,2.04,49.45,46.18,59.17,55.04c9.53-8.7,56.33-52.95,58.43-55.04c12.19-12.1,24.04-12.65,38.1-0.06l247.68,222.89
	c7.72,6.95,8.38,16.64,1.65,24.12l-8.07,8.98C846.84,495.63,842.12,497.89,837.04,497.89z"/>
<path d="M476.75,823.28c-15.28-14.68-216.62-195.22-234.23-211.42s-15.58-37.7,0.28-51.43c15.86-13.73,166.85-149.42,166.85-149.42
	c4.77-4.27,9-7.12,14.16-7.12c4.02,0,13.36,1.83,13.36,18.77c0,2.16,0.04,6.54,0.11,13.03c0.08,6.72-2.64,17.09-10.56,24.2
	L285.74,586.3l223.73,201.93c1.54,1.38,4.3,1.38,5.83,0c0,0,200.31-180.83,223.71-201.95L597.96,459.9
	c-7.92-7.11-10.64-17.48-10.56-24.2c0.07-6.36,0.11-10.87,0.11-13.03c0-5.64,1.3-18.77,13.36-18.77c5.15,0,9.39,2.85,14.16,7.12
	c0,0,152.68,136.97,166.9,149.4c14.22,12.43,14.85,37.67,0.28,51.42C767.64,625.6,564,808.68,547.94,823.34
	C521.94,847.06,501.51,847.06,476.75,823.28z"/>
</svg>
